<?xml version="1.0" standalone="no"?>
<!DOCTYPE svg PUBLIC "-//W3C//DTD SVG 1.1//EN" "http://www.w3.org/Graphics/SVG/1.1/DTD/svg11.dtd" >
<svg xmlns="http://www.w3.org/2000/svg">
<metadata>
Created by FontForge 20120731 at Fri Dec  4 15:07:27 2015
 By Ads
</metadata>
<defs>
<font id="iconfont" horiz-adv-x="1024" >
  <font-face 
    font-family="iconfont"
    font-weight="500"
    font-stretch="normal"
    units-per-em="1024"
    panose-1="2 0 6 3 0 0 0 0 0 0"
    ascent="896"
    descent="-128"
    x-height="792"
    bbox="0 -128.25 1717 896"
    underline-thickness="50"
    underline-position="-100"
    unicode-range="U+0078-E61B"
  />
<missing-glyph horiz-adv-x="374" 
d="M34 0v682h272v-682h-272zM68 34h204v614h-204v-614z" />
    <glyph glyph-name=".notdef" horiz-adv-x="374" 
d="M34 0v682h272v-682h-272zM68 34h204v614h-204v-614z" />
    <glyph glyph-name=".null" horiz-adv-x="0" 
 />
    <glyph glyph-name="nonmarkingreturn" horiz-adv-x="341" 
 />
    <glyph glyph-name="x" unicode="x" horiz-adv-x="1001" 
d="M281 543q-27 -1 -53 -1h-83q-18 0 -36.5 -6t-32.5 -18.5t-23 -32t-9 -45.5v-76h912v41q0 16 -0.5 30t-0.5 18q0 13 -5 29t-17 29.5t-31.5 22.5t-49.5 9h-133v-97h-438v97zM955 310v-52q0 -23 0.5 -52t0.5 -58t-10.5 -47.5t-26 -30t-33 -16t-31.5 -4.5q-14 -1 -29.5 -0.5
t-29.5 0.5h-32l-45 128h-439l-44 -128h-29h-34q-20 0 -45 1q-25 0 -41 9.5t-25.5 23t-13.5 29.5t-4 30v167h911zM163 247q-12 0 -21 -8.5t-9 -21.5t9 -21.5t21 -8.5q13 0 22 8.5t9 21.5t-9 21.5t-22 8.5zM316 123q-8 -26 -14 -48q-5 -19 -10.5 -37t-7.5 -25t-3 -15t1 -14.5
t9.5 -10.5t21.5 -4h37h67h81h80h64h36q23 0 34 12t2 38q-5 13 -9.5 30.5t-9.5 34.5q-5 19 -11 39h-368zM336 498v228q0 11 2.5 23t10 21.5t20.5 15.5t34 6h188q31 0 51.5 -14.5t20.5 -52.5v-227h-327z" />
    <glyph glyph-name="uniE601" unicode="&#xe601;" 
d="M1 397l414 384l243 -236l228 264l-82 87h220v-222l-78 79l-288 -322l-244 244l-360 -339zM72 256h96v-256h-96v256zM365 469h96v-469h-96v469zM658 321h96v-321h-96v321zM928 508h96v-508h-96v508zM0 -64h1024v-64h-1024v64z" />
    <glyph glyph-name="uniE602" unicode="&#xe602;" 
d="M913 649l-141 138l-392 -382l142 -139zM306 198l184 44l-135 131zM1001 845l-29 28q-23 23 -56 23t-56 -23l-53 -52l140 -138l54 53q15 14 20.5 34t0 40t-20.5 35v0zM834 -21q0 -9 -6 -15t-15 -6h-101h-40h-563q-5 0 -9 1.5t-6.5 4.5t-4.5 7t-2 8v769q0 5 2 8.5t4.5 6.5
t6.5 4.5t9 1.5h545v86h-545q-59 0 -91 -48q-18 -27 -18 -59v-769q0 -44 32 -75.5t77 -31.5h563h40h101q29 0 54 14.5t39.5 39t14.5 53.5v516h-87v-516v0z" />
    <glyph glyph-name="uniE603" unicode="&#xe603;" 
d="M490 -100q-83 0 -159.5 33.5t-132 90t-88.5 134.5t-33 165q0 101 43 185t117 143q15 16 20.5 21.5t8.5 10.5t8 15q-6 2 -17 6t-39.5 19.5t-51.5 35t-44 53.5t-26 74l29 -10q29 -9 55 -15.5t79.5 -12t109 -4t138 14t171.5 36.5q2 0 13 0.5t19 0.5t21.5 -1t24 -4.5
t23.5 -8.5t21.5 -14.5t16 -22t10.5 -31t2 -41.5q-7 -2 -20 -4t-28 -4t-35.5 -5t-41 -7t-45 -11t-47.5 -16q-49 -20 -88 -40t-86 -50.5t-88.5 -71.5t-75.5 -91q-23 -38 -35 -74t-12 -76q0 -112 78.5 -192t184.5 -80q112 0 187.5 79t75.5 193q0 97 -60.5 172.5t-145.5 89.5
q9 1 9 10q79 20 136.5 9t96.5 -43t62.5 -66t32.5 -61l10 -27q10 -28 10 -84q0 -111 -56 -208.5t-151.5 -156t-206.5 -58.5zM612 323l-122 -132l-122 132l122 131z" />
    <glyph glyph-name="uniE604" unicode="&#xe604;" horiz-adv-x="1069" 
d="M0 896h243v-244h-243v244zM0 506h243v-244h-243v244zM0 116h243v-244h-243v244zM340 896h729v-98h-729v98zM340 506h729v-98h-729v98zM340 116h729v-98h-729v98zM340 750h631v-98h-631v98zM340 360h631v-98h-631v98zM340 -30h631v-98h-631v98z" />
    <glyph glyph-name="uniE605" unicode="&#xe605;" 
d="M568 448q1 112 1.5 223.5t-1.5 223.5q129 0 233.5 -57.5t163 -160t58.5 -229.5h-455zM985 356q0 -78 -25 -152t-70.5 -133.5t-106 -104.5t-135.5 -69.5t-155 -24.5q-58 0 -113.5 13t-104 36.5t-91 57t-76 75.5t-58 89.5t-37.5 102t-13 110.5q0 99 39 188.5t105 154.5
t157 103.5t192 38.5q13 0 38 -2v-428h451q2 -13 2.5 -27t0.5 -28zM945 371h-452v433q-173 0 -302 -113q-124 -108 -148 -269q-5 -33 -5 -66q0 -90 36 -173t97 -143t145 -95.5t176.5 -35.5t177 35.5t145 95.5t96.5 143t36 173q0 32 -1 25z" />
    <glyph glyph-name="uniE606" unicode="&#xe606;" 
d="M72 469h96v-426h-96v426zM365 896h96v-853h-96v853zM658 555h96v-512h-96v512zM928 896h96v-853h-96v853zM0 -21h1024v-107h-1024v107z" />
    <glyph glyph-name="uniE607" unicode="&#xe607;" horiz-adv-x="1294" 
d="M36 27q12 -8 26.5 -5t22.5 15l198 304l263 -420l288 374l400 -280q9 -6 20 -6q18 0 29 15q5 8 6 17t-3 17.5t-12 14.5l-397 277l355 462q9 11 7 25.5t-13.5 23.5t-26 7t-23.5 -14l-356 -463l-404 282l-131 -202l-200 319q-8 12 -22 15.5t-26.5 -4.5t-15.5 -22t4 -26
l217 -346l-216 -332q-19 -29 10 -48zM435 574l342 -239l-225 -291l-226 362z" />
    <glyph glyph-name="uniE608" unicode="&#xe608;" horiz-adv-x="1366" 
d="M425 855q-10 0 -16.5 -7t-6.5 -17v-611q0 -68 -20 -121t-59 -90q-27 -25 -63.5 -42.5t-66 -24.5t-61 -10t-43.5 -2.5t-19 1.5q-9 0 -16 -6t-8 -15q0 -5 1 -9.5t4 -8t7 -5.5t8 -3q11 -1 27 -1q25 0 52 3.5t64.5 12t75.5 28t68 48.5q46 43 70 105t24 140v611q0 10 -6.5 17
t-15.5 7zM1216 710q-60 63 -137 96t-162 33h-271v-955h271q85 0 162 33t137 95.5t92.5 142.5t32.5 168v77q0 88 -32.5 168t-92.5 142zM1296 323q0 -107 -51 -197.5t-138 -143t-190 -52.5h-226v863h226q44 0 86.5 -10.5t80 -30t70.5 -46t58.5 -61t44.5 -73t29 -83t10 -89.5
v-77z" />
    <glyph glyph-name="uniE609" unicode="&#xe609;" horiz-adv-x="1756" 
d="M749 410l-6 -71q-2 -25 4.5 -46t18.5 -32.5t22 -18t18 -8.5l-4 -34q-16 0 -34 2.5t-39.5 11t-39 21t-32.5 34.5t-21 50q-2 11 -3 24.5t-0.5 24.5t1 21t0.5 15l1 6h114zM1158 641h-283q-22 0 -26.5 17.5t6.5 35.5l39 93h117q-21 -56 -25 -67q-1 -1 -1 -2l-3 -9
q-1 -3 3 -6.5t14 -3.5h164zM1150 544l5 58h-310l-4 -58h68l-4 -52h-69h-81l13 156q2 22 -15 36.5t-44 14.5h-132l6 74q1 6 -2.5 10t-8.5 4h-103l-7 -88h-144l-5 -58h144l-12 -149h-144l-5 -58h137q-9 -26 -23.5 -53t-31 -49.5t-35 -42.5t-34.5 -33.5t-30 -21.5l-3 -34
q21 0 58.5 19t78 49t78 75t55.5 91h286h68l-15 -182q-3 -28 12.5 -40t45.5 -12q47 0 99 17.5t84 34.5l3 33q-17 -4 -31 -7t-33 -6.5t-32 -4.5q-15 -1 -22 5t-5 21l11 141h124l5 58h-124l4 52h124zM652 616l-10 -124h-82l12 149h50q14 0 22.5 -7.5t7.5 -17.5zM1530 790
q0 26 17.5 44.5t42 18.5t42 -18.5t17.5 -44.5q0 -17 -8 -31t-21.5 -22.5t-30 -8.5t-30 8.5t-21.5 22.5t-8 31zM9 572l-7 -79q-3 -27 10 -43t39 -16h105l-19 -234h104l48 573q0 6 -3.5 10t-8.5 4h-92l-24 -295h-42q-7 0 -11.5 3.5t-5.5 7.5l-1 4l7 62zM1717 180
q0 -50 -47 -109q-76 -98 -197 -100q-3 0 -5 -1q-48 0 -86 22t-57 60.5t-20.5 84.5t23 100t73.5 102q30 29 62 46.5t61 22.5t56 0.5t47.5 -17t33.5 -31.5q22 -35 10 -61t-54 -38.5t-96 -5.5q-78 9 -122 79t-47 174v16q0 5 0.5 10t0.5 10h216l5 58h-218q3 18 6 39h215l5 58
h-209l21 72q0 5 -3 9t-9 4h-99l-18 -80l-1 -5h-67l-5 -58h64q-2 -9 -3 -19l-2 -20h-62l-5 -58h64v-16q0 -10 3 -39t9.5 -55.5t21 -60.5t34.5 -60q21 -28 43.5 -49t49 -35t56.5 -21t65 -7q24 0 47 4t42.5 12.5t35.5 19.5t27.5 26t17.5 31q11 35 -8 74t-52 63
q-52 41 -121.5 35t-134 -38t-114.5 -99.5t-63 -150.5q-10 -64 5.5 -118.5t48.5 -88t74.5 -52t84.5 -18.5q59 0 114.5 24t95 63t63.5 89.5t24 102.5zM9 572q1 2 1 6.5t1 18t2.5 27.5t4 33.5t5.5 37.5q32 201 257 201h233h-11h34l-1 -9q-2 -16 -24 -16h-12h-2h-199
q-154 -1 -178 -189q-3 -26 -6 -54.5t-5 -43.5l-1 -15zM203 15q-10 -7 -18.5 -10t-14.5 -2q-45 1 -43 46q2 16 9.5 27t20 17.5t29.5 7.5q54 -2 51 -65q-14 -88 -94 -94q-15 0 -13 5q-1 2 2 4t10 2q48 7 61 62zM177 16q26 0 30 34q1 38 -21 39q-24 -1 -28 -39q-2 -33 19 -34z
M330 15q-20 -13 -33 -12q-44 1 -43 46q4 24 18.5 37t40.5 15q55 -2 52 -65q-15 -88 -95 -94q-15 0 -13 5q0 2 3 4t9 2q49 7 61 62zM304 16q26 0 30 34q1 38 -21 39q-12 0 -19 -10t-9 -29q-2 -33 19 -34zM382 -34l10 112q0 1 0.5 7t0.5 7q0 3 2.5 4.5t7.5 1.5h59
q44 -1 43 -33q-1 -4 -2 -7.5t-2 -6.5t-3 -5.5t-4.5 -5t-5.5 -4.5t-6.5 -4t-7 -3t-8.5 -3q41 -4 41 -37q-5 -43 -58 -45h-59q-5 0 -7.5 1.5t-1.5 5.5q0 1 0.5 6.5t0.5 8.5zM416 13l-3 -38q-2 -9 2 -13.5t15 -3.5q21 0 32 7.5t13 22.5q0 25 -26 32zM421 68l-4 -42q53 10 56 39
q0 18 -29 19q-13 1 -19 -3t-4 -13zM540 -56h-11q-8 0 -7 6l2 15l4 55q0 2 -1.5 4t-4.5 4q-4 3 -4 6q0 2 1.5 3t4.5 2l3 1q18 7 22 7q8 2 6 -16l-6 -66q-1 -13 -1 -15q-1 -6 -8 -6zM545 87q7 -1 10.5 -4.5t3.5 -10.5q-2 -15 -18 -15q-8 0 -11.5 3.5t-3.5 11.5q2 14 19 15z
M647 -56h-11q-8 0 -7 6l2 16l9 112q0 5 -6 8q-2 1 -3 3t-1 4q6 8 31 12q7 1 6 -14l-11 -125q-1 -14 -1 -16q0 -3 -2 -4.5t-6 -1.5zM593 -56h-11q-4 0 -5.5 1.5t-1.5 4.5l2 16l9 112q1 5 -6 8q-2 1 -3 3t-1 4q6 8 31 12q7 1 6 -14l-10 -125q-2 -14 -2 -16q0 -3 -2 -4.5
t-6 -1.5zM700 -57q-16 1 -15 13q1 14 17 15q14 -1 15 -15q-1 -3 -2.5 -5t-3.5 -4t-5 -3t-6 -1zM740 -7q7 50 57 54q8 -1 14 -2.5t10.5 -4t7 -6.5t3.5 -9q-2 -10 -14 -10q-5 -1 -10 9q-5 12 -13 12q-24 -3 -28 -43q-1 -33 25 -36q4 0 8 1.5t8.5 3.5t8.5 6q2 2 3.5 3t2.5 2
t2 1q5 -1 4 -6q-3 -8 -9 -13t-14.5 -8t-19.5 -4q-48 2 -46 50zM949 -6q-8 -48 -59 -51q-51 3 -50 51q7 49 59 53q50 -4 50 -53zM867 -6q-2 -38 24 -39q26 1 30 39q2 38 -23 41q-27 -3 -31 -41zM1108 -56h-12q-7 0 -7 6q1 1 1 7t1 9l4 46q0 19 -15 19q-18 -1 -22 -18l-4 -47
q0 -3 -0.5 -6.5t-0.5 -5.5v-4q0 -2 -1 -3.5t-2.5 -2t-4.5 -0.5h-11q-9 0 -8 6q0 1 1 7t1 9l4 46q0 10 -3.5 14.5t-10.5 4.5q-19 -1 -23 -18l-4 -47q0 -9 -1 -16q0 -6 -8 -6h-11q-4 0 -6 1.5t-1 4.5v6q1 6 2 10l4 51q1 9 -5 11q-4 2 -4 7q1 4 7.5 7t19.5 5q8 2 6 -17
q12 16 34 17q19 -1 26 -17q13 17 36 17q31 -2 30 -34l-4 -47q0 -4 -0.5 -9.5t-0.5 -6.5q0 -3 -2 -4.5t-5 -1.5z" />
    <glyph glyph-name="uniE60A" unicode="&#xe60a;" horiz-adv-x="1366" 
d="M649 -94q45 -2 99.5 -3.5t116 5t122 16.5t118 31t103.5 48t78.5 69t42.5 94q12 56 -14 108t-76.5 89.5t-119 67t-138.5 47t-138 24.5q22 13 67 38.5t66 37.5q-89 49 -267 148q-5 2 -8 4t-7.5 4t-7.5 4l-266 -151l265 -138q16 -4 36 -3.5t34.5 3t32 5t26.5 2.5
q56 1 118.5 -26.5t111 -69t71 -97t2.5 -105.5q-16 -45 -50 -81t-79.5 -61t-101.5 -40.5t-116 -21.5t-122.5 -2.5t-121 15.5t-112 34t-96 51t-72 68t-39.5 84h-205q112 -262 647 -298zM829 583l-133 -71l-134 71l139 72zM716 890q-227 16 -409 -34q-238 -66 -272 -225
q-12 -57 14 -108.5t76.5 -89t119 -67.5t139 -47t138.5 -24q-19 -11 -43 -24.5t-48 -27.5t-43 -25q88 -48 291 -160l266 151l-266 138q-29 4 -47.5 3t-44.5 -5.5t-37 -4.5q-55 0 -118 27t-111 68.5t-71 97t-3 105.5q20 56 67.5 98.5t110.5 67t139 35t152.5 6.5t150.5 -23
t133.5 -50t102 -77.5t55.5 -102.5h204q-111 262 -646 298zM536 213l132 71l134 -71l-138 -71z" />
    <glyph glyph-name="uniE60B" unicode="&#xe60b;" 
d="M550 -126h-6h-8h-6q-17 1 -28 13t-10 28.5t13 27.5t29 10q42 -2 70 7.5t50 33.5q24 26 47 73.5t52 122.5q83 219 180 519l-509 101l-179 -490q-3 -7 -8.5 -13t-12 -9t-14.5 -3.5t-16 1.5q-15 6 -22 21t-2 30l191 522q5 14 18 21t27 5l586 -117q17 -3 26 -18.5t4 -31.5
q-4 -12 -12 -36.5t-29.5 -90.5t-43.5 -131.5t-52.5 -151t-57.5 -156.5q-21 -55 -37.5 -93t-36.5 -72t-41 -57q-31 -34 -70.5 -50t-91.5 -16zM554 -127q-8 -1 -16.5 -0.5t-16.5 1.5t-16 3t-15 4t-13.5 4t-11.5 4t-8.5 3.5t-5.5 2.5l-2 1l-331 150q-2 0 -5 1.5t-13.5 6.5
t-20 11.5t-22 18t-22.5 25t-18.5 33t-12.5 42t-3 52t8 61.5l451 -182v-6v-16q0 -12 1 -23.5t4.5 -27t9 -28.5t15 -26t22 -21t31 -11.5t41.5 -0.5q20 -19 11 -47.5t-41 -34.5zM763 513q-5 0 -11 2l-173 47q-16 4 -24 18.5t-3.5 30t18.5 24t30 3.5l173 -47q16 -4 24 -18.5
t4 -30.5q-3 -13 -14 -21t-24 -8zM693 342h-3h-4q-1 0 -2.5 0.5t-3.5 1.5l-172 56q-10 3 -17.5 11t-9.5 18t2 21q3 10 11 17t18 9t21 -1l172 -56q16 -5 23 -20t2 -30q-4 -13 -14.5 -20t-22.5 -7zM628 182q-6 0 -13 2l-172 56q-10 4 -17 12t-9 18t1 20t11 17.5t18 9.5t21 -1
l172 -57q16 -5 23.5 -19.5t2.5 -30.5q-2 -5 -5 -9t-6.5 -7.5t-8 -6t-9 -3.5t-9.5 -1zM473 596l-8 1l-2 1q-3 0 -4 1q-11 2 -18.5 9t-11 17t-1.5 21q4 16 17.5 24.5t30.5 5.5q1 0 3 -1h2q16 -4 25 -17.5t6 -29.5q-3 -14 -14 -23t-25 -9zM411 432q-1 0 -2.5 0.5t-2.5 0.5h-3
l-2 1q-3 0 -4 1q-16 3 -25 17t-5.5 30t17.5 24.5t30 5.5l3 -1h3q16 -4 24.5 -17.5t5.5 -29.5q-3 -14 -14 -23t-25 -9zM348 281h-8l-2 1h-1l-3 1q-11 2 -18.5 9t-11 17t-1.5 21q4 16 18 25t30 5h2l1 -1h2q17 -4 25.5 -17.5t5.5 -29.5q-3 -14 -14 -22.5t-25 -8.5z" />
    <glyph glyph-name="uniE60C" unicode="&#xe60c;" 
d="M914 896h-804q-45 0 -77 -41.5t-32 -100.5h1022q0 59 -32 100.5t-77 41.5zM1 14q0 -59 32 -100.5t77 -41.5h804q45 0 77 41.5t32 100.5v561h-1022v-561zM641 243h159q44 0 74.5 -34t30.5 -82v-90h-264v206z" />
    <glyph glyph-name="uniE60D" unicode="&#xe60d;" 
d="M0 896h89v-89h-89v89zM0 584h89v-89h-89v89zM0 -39h89v-89h-89v89zM267 896h757v-89h-757v89zM267 584h757v-89h-757v89zM267 -39h757v-89h-757v89zM0 273h89v-89h-89v89zM267 273h757v-89h-757v89z" />
    <glyph glyph-name="uniE60E" unicode="&#xe60e;" 
d="M859 769q19 -9 35 -22t28 -29q51 -68 28 -182q-23 -117 -98 -189q-14 -14 -29 -27q-40 -31 -89.5 -47t-104.5 -16h-234l-63 -295h-130l10 45h45l63 295h184q134 0 233.5 78t128.5 214q14 62 5.5 111t-31 85t-57 59.5t-73 35t-77.5 11.5h-439l-194 -889h148l-23 -107h257
l63 295h184q134 0 233.5 78t128.5 213q11 58 6.5 103.5t-25.5 81.5t-49 59.5t-64 38.5zM412 715h126q48 0 74 -35.5t13 -85.5q-6 -25 -20.5 -47.5t-34.5 -39t-44 -26t-48 -9.5h-121z" />
    <glyph glyph-name="uniE60F" unicode="&#xe60f;" horiz-adv-x="1118" 
d="M1000 105q49 0 83 -34t34 -82.5t-34 -82.5t-82.5 -34t-82.5 34t-34 82.5t34 82.5t82 34v0zM982 71v-99q0 -5 3.5 -8.5t8.5 -3.5h79q5 0 8.5 3.5t3.5 8.5q0 3 -1 5t-2.5 4t-4 3t-4.5 1h-66v86q0 4 -2 7t-4.5 4.5t-6.5 1.5q-5 0 -8.5 -3.5t-3.5 -9.5zM757 575
q-11 11 -27.5 11t-27.5 -11l-102 -101l-102 101q-6 6 -13 8.5t-15 2.5q-3 0 -7 -0.5t-7.5 -2t-6.5 -3.5t-6 -5q-11 -11 -11 -27t11 -27l63 -63h-62q-3 0 -5 -2.5t-2 -5.5v-62q0 -8 7 -8h117v-51h-117q-6 -2 -7 -8v-62q0 -7 7 -7h117v-116q0 -16 11.5 -27.5t27.5 -11.5
t27.5 11.5t11.5 27.5v116h116q4 0 6 2t2 5v62q-2 7 -8 8h-116v51h116q7 2 8 8v62q0 3 -2 5.5t-6 2.5h-61l63 63q11 11 11 27t-11 27zM1048 132q15 25 27 53q40 95 40 199q0 52 -10 102t-30 97q-20 46 -47.5 87t-63.5 76q-71 71 -163 110q-48 20 -98.5 30t-102.5 10
q-105 0 -200 -40q-16 -7 -30.5 -14t-29 -15.5t-28 -17.5t-26.5 -19t-25.5 -21t-24.5 -23q-71 -71 -110 -163q-8 -18 -14.5 -37.5t-11.5 -39.5l-26 58q-10 23 -35 23q-2 0 -3.5 -0.5t-3 -0.5h-2.5l-4 -2q-1 0 -3 -1q-7 -3 -12.5 -8.5t-7.5 -12.5q-6 -15 0 -30l80 -178l1 -1
v-1v-1q1 0 1 -1t1 -1q1 -1 1 -2l1 -1l1 -1l1 -2q1 0 1 -0.5t1 -0.5v0q0 -1 0.5 -1.5t1.5 -0.5l1 -1q1 -1 1.5 -1t1.5 -1t2 -1l3 -1q11 -2 16.5 -2.5t6.5 -0.5h-1q-1 -1 -3 -1v0h-3h-1h-2h-1h-1q-1 0 -1 1h-3v0q3 -1 4 -1h4h4l3 1h2h2v1h2h1v1h2l1 1h1l1 1h1v1h1l5 4l148 128
q12 11 13 27t-10 28q-11 13 -29 13q-14 0 -25 -10l-70 -61q19 100 81 181t153.5 126.5t194.5 45.5q89 0 170 -34.5t139.5 -93t93 -139t34.5 -168.5q0 -63 -17.5 -122t-50.5 -111h4h4q19 0 37 -5t34 -14zM857 -60q-27 -15 -56 -27q-96 -41 -201 -41q-46 0 -91 8.5t-87.5 24
t-82 38.5t-74.5 53q-12 10 -13.5 26t9.5 28q12 13 29 13q15 0 26 -9q29 -25 62.5 -44.5t69.5 -33t74.5 -20t77.5 -6.5q43 0 85 8t80 23.5t72 37.5v-7q0 -39 20 -72z" />
    <glyph glyph-name="uniE610" unicode="&#xe610;" horiz-adv-x="1118" 
d="M758 575q-12 11 -28 11t-27 -11l-103 -101l-102 101q-3 4 -7.5 6.5t-9.5 3.5t-10 1h-5q-3 0 -5.5 -1t-4.5 -2t-4.5 -2t-4.5 -2.5t-4 -3.5q-4 -4 -7 -9.5t-3.5 -11.5t0 -12t3.5 -11.5t7 -9.5l64 -63h-62q-8 0 -8 -8v-62q0 -3 2.5 -5.5t5.5 -2.5h117v-51h-117q-8 0 -8 -8
v-62q0 -3 2.5 -5t5.5 -2h117v-116q0 -11 5 -20t14 -14t19 -5q16 0 27.5 11.5t11.5 27.5v116h117q8 0 8 7v62q0 3 -2.5 5.5t-5.5 2.5h-117v51h117q6 2 8 8v62q0 3 -2.5 5.5t-5.5 2.5h-62l64 63q11 11 11 27t-11 27zM1075 583q-19 46 -47 87t-63 76q-71 71 -164 110
q-32 13 -65 22t-67 13.5t-68 4.5q-105 0 -201 -40q-31 -13 -59.5 -29.5t-54.5 -36.5t-50 -44q-71 -71 -110 -163q-2 -4 -4 -9t-4 -9.5t-4 -9.5l-2 -10q-2 -5 -3.5 -9.5t-2.5 -9.5l-4 -10l-2 -10l-26 58q-10 23 -35 23q-8 0 -16 -4q-3 -1 -6.5 -3.5t-6 -5t-4.5 -6t-3 -6.5
q-6 -15 0 -30l80 -178q1 -1 1 -2l1 -1l1 -1v-1q1 -1 1 -2q1 0 1 -1l1 -1l1 -1v-1q1 0 1 -0.5t1 -0.5v-1h1v-1h1l1 -1h1q0 -1 0.5 -1t1.5 -1v0q1 -1 2 -1l5 -3h2h1q1 -1 2 -1v0h1h2q0 -1 1 -1v0h1h1h2h1h3v0l3 1h1h3v1h3v1h2l1 1h1l2 1l1 1q1 1 2.5 2t3.5 2l147 128
q12 11 13 27t-9 28q-6 6 -13.5 9.5t-16.5 3.5q-14 0 -25 -10l-70 -61q19 100 81 181t153.5 126.5t195.5 45.5q88 0 169.5 -34.5t140 -93t93 -139t34.5 -168.5t-34.5 -168.5t-93 -139t-140 -92.5t-169.5 -34q-162 0 -285 104q-11 9 -25 9q-18 0 -30 -13q-2 -3 -3 -6l-4 -4
q-1 -3 -1.5 -6t-0.5 -6v-6q0 -3 0.5 -6t2 -5.5t3 -5.5t3.5 -5l4 -4q70 -60 156.5 -92t179.5 -32q104 0 200 41q93 38 164 109t110 163q41 95 41 199t-41 199z" />
    <glyph glyph-name="uniE611" unicode="&#xe611;" horiz-adv-x="1639" 
d="M18 810q-14 15 -14 36t14 35.5t34.5 14.5t34.5 -15l450 -460q15 -14 15 -35t-15 -36h-1l-452 -463q-15 -15 -35 -15t-34.5 14.5t-14.5 35.5t14 36l419 428l-415 424v0zM1105 810q-6 6 -9.5 13.5t-4.5 15t0 15t4.5 15t9.5 12.5q14 15 34 15t35 -15l450 -460q14 -14 14 -35
t-14 -36h-1l-453 -463q-14 -15 -34.5 -15t-35 14.5t-14.5 35.5t15 36l419 428l-415 424v0zM561 810l415 -424l-418 -428q-10 -10 -13.5 -23t0 -26t13 -22.5t22 -13t25.5 0t22 13.5l453 463h1q9 10 12.5 23t0 26t-12.5 22l-451 460q-4 5 -10 8.5t-12 5t-12.5 1.5t-12.5 -1.5
t-11.5 -5t-10.5 -8t-8 -10.5t-4.5 -12.5t-1.5 -13t1.5 -12.5t4.5 -12t8 -11v0z" />
    <glyph glyph-name="uniE612" unicode="&#xe612;" 
d="M937 274h87v220h-87q-32 0 -53 9t-27 24t2 36t31 44l62 62l-156 155l-61 -62q-47 -47 -80 -33t-33 80v1v86h-220v-87q0 -43 -15 -65t-41 -17t-57 35l-61 62l-156 -156l62 -61q47 -47 33 -80t-80 -33h-87v-220h87q66 0 80 -33t-33 -80l-62 -61l156 -156l61 62q23 23 44 31
t36 2t24 -26.5t9 -53.5v-87h220v86v1q0 66 33 80t80 -33l61 -62l156 156l-62 61q-11 12 -19 23t-12 21t-4.5 19t2.5 17t10 14t17 10.5t23.5 6.5t29.5 2zM512 149q-97 0 -166 69t-69 166t69 166t166 69t166 -69t69 -166t-69 -166t-166 -69z" />
    <glyph glyph-name="uniE613" unicode="&#xe613;" horiz-adv-x="1118" 
d="M1116 289l-209 227v341h-139v-189l-209 227l-558 -606v-38h139v-379h349v228h139v-228h349v379h139v38z" />
    <glyph glyph-name="uniE614" unicode="&#xe614;" 
d="M1023 62q0 -6 -7 -18t-24 -30t-42.5 -36.5t-67 -37.5t-92 -33.5t-123 -24t-155.5 -9.5q-338 0 -466 117q-42 40 -45 72v27v0v181v0v409q0 59 68.5 108.5t186 78.5t256.5 29q46 0 91.5 -3.5t87 -10t79.5 -16t71 -21.5t61.5 -26t50.5 -30t38 -33.5t24 -36.5t8 -39v-617v0z
M72 89q0 -39 59 -72t160.5 -52.5t220.5 -19.5q72 0 139 7.5t121 20.5t94.5 31t63 40t22.5 45v71q-68 -48 -185 -77t-255 -29t-255 29t-185 77v-71v0zM72 270q0 -39 59 -72.5t160.5 -52.5t220.5 -19t220.5 19t160.5 52.5t59 72.5v95q-45 -32 -111.5 -56t-151.5 -37.5
t-177 -13.5q-138 0 -255 29t-185 78v-95v0zM72 450q27 -51 152 -85.5t288 -34.5q61 0 128.5 12.5t121 30t97.5 35.5t68 30l25 12v119q-45 -32 -111.5 -55.5t-151.5 -37t-177 -13.5q-138 0 -255 29t-185 77v-119v0zM512 823q-89 0 -170.5 -11.5t-140.5 -30.5t-94 -46t-35 -56
t35 -56t94 -46t140.5 -30.5t170.5 -11.5t170.5 11.5t140.5 30.5t94 46t35 56q0 39 -59 72t-160.5 52.5t-220.5 19.5v0z" />
    <glyph glyph-name="uniE615" unicode="&#xe615;" 
d="M512 -128q-131 -1 -247 54.5t-187 151.5l-78 -78v256h256l-71 -71q91 -150 263 -179v387q-84 21 -138 89.5t-54 156.5q0 106 75 181t180.5 75t180.5 -75t75 -181q0 -58 -25 -109.5t-68.5 -87t-98.5 -49.5v-387q83 14 151.5 61.5t111.5 117.5l-71 71h256v-256l-78 78
q-71 -96 -187 -151.5t-246 -54.5zM639 639q0 35 -17 64.5t-46.5 46.5t-63.5 17q-53 0 -90.5 -37.5t-37.5 -90.5q0 -21 6.5 -40.5t18 -35t27.5 -27.5t35.5 -18.5t40.5 -6.5q52 0 89.5 37.5t37.5 90.5z" />
    <glyph glyph-name="uniE616" unicode="&#xe616;" 
d="M109 394q2 38 10 75.5t22 71t32.5 65.5t41.5 60t49.5 53.5t55.5 46t61 37t65 28t67.5 18t68.5 7.5q-84 -2 -166 -22t-157.5 -60t-133 -95.5t-91.5 -135t-34 -172.5q0 -109 53 -207t143 -164q18 -14 37.5 -25.5t35 -20t39 -16.5t35.5 -13t40 -10.5t36.5 -7.5t41.5 -6.5
t38 -5t43.5 -5t41.5 -4.5q-78 9 -150.5 36t-133.5 72.5t-105 104.5t-67 135t-19 160zM600 770q-14 0 -29 -1q94 -7 172.5 -61.5t124 -143.5t45.5 -193q0 -160 -100 -275q-97 -112 -237 -124h-5q15 -1 29 -1q114 0 211 53.5t153 145.5t56 201q0 81 -33.5 155t-89.5 127.5
t-134 85t-163 31.5zM560 412q0 -1 -1.5 -2.5t-4 -7t-3.5 -10.5t1 -13t8 -16q9 -12 20.5 -15t16.5 -1t9 5l144 114l2 2q2 2 5 7t4 10.5t-1.5 14t-8.5 17.5q-2 4 -6.5 10.5t-19.5 24t-31 31.5t-42 28t-53.5 18.5t-63.5 -2.5t-72 -29l-143 -72q-8 -3 -20 -8.5t-38 -26t-41 -43
t-13.5 -59.5t30.5 -76q20 -30 50 -49q144 -120 164 -130q5 -3 13.5 -7t34 -10t50 -5.5t55.5 13t57 40.5q7 7 18 20t40.5 48t53 63t44.5 55.5t25 37.5q1 2 2 5t3 10.5t1 13.5q0 2 -1 4.5t-5.5 7.5t-10.5 6t-17.5 -4.5t-26.5 -18.5q-75 -85 -112 -122q-2 -2 -5.5 -6t-14.5 -12
t-22.5 -12t-28.5 -1.5t-34 13.5q-30 15 -139 121q-2 2 -5 5.5t-9.5 13t-10 19t-2 22.5t10.5 24q2 2 6 5.5t17 13t25.5 18t30.5 16.5t33.5 12.5t32 3t29.5 -10.5q29 -18 44 -31q1 -1 2.5 -2t4 -5t3.5 -8.5t-1.5 -10t-8.5 -10.5z" />
    <glyph glyph-name="uniE617" unicode="&#xe617;" horiz-adv-x="1536" 
d="M1046 544q10 4 17 13.5t9 20.5q6 27 -14 35l-8 1q-9 0 -17 1l-8 1l-7 1v-3v-4l-4 -17l-8 -34l-4 -18l-1 -3h9q25 0 36 6zM1055 329l-12 -40q1 1 3.5 2t8 3.5t9 3t8 1.5t7.5 1h3l9 29h-36zM1159 445q12 0 18 9q1 1 2.5 3t2 4.5t1.5 4.5q1 5 2.5 9.5t2.5 9.5q1 3 1.5 6.5
t1.5 6.5q1 24 -14 24q-17 0 -26 -41q-4 -15 -4 -22q1 -5 2 -8t3.5 -4t3.5 -1.5t3 -0.5zM678 447q8 0 15 9q6 9 11 32q8 36 -8 36q-5 0 -9.5 -3t-7.5 -9t-5 -12.5t-4 -16.5q-3 -14 -3 -22q1 -14 11 -14zM1008 174h36l10 35h-36zM1024 229q2 1 4.5 2t8 3.5t8.5 3.5l19 3l9 29
h-36zM896 267l5 14h-53l-4 -14h43q5 1 8 0h1zM915 328h-57l-5 -23q2 1 4 1.5t4.5 1.5t5 1.5t5.5 0.5l38 1zM827 267l2 7zM819 239l-19 -62q-1 -5 -1.5 -6.5t0.5 -3.5t4 -3l17 75h-1zM1455 894h-331q-6 1 -14 1h-438h-4h-4q-2 0 -4 -1h-360q-40 0 -75 -28.5t-44 -68.5
l-178 -767q-9 -40 12.5 -68.5t61.5 -28.5h382q3 0 5.5 0.5t5.5 0.5h376q-40 0 -61.5 28.5t-12.5 68.5l24 101h-4q-16 0 -24 1q-11 1 -13 3q-8 6 -8 10t4 16l59 198h38l14 59h-11h-14l-1 1q1 4 2 8.5t2 9.5t2 8l3 12q8 34 9 46q1 13 -10 13q-4 0 -14 -4q-1 -4 -11 -50
q-2 -9 -3.5 -15.5t-2 -10t-1.5 -8t-1 -8.5l-2 -2q-14 1 -23.5 0.5t-25.5 -0.5l-1 1q1 8 11 47q10 44 14 80l2 1q18 3 26 4l26 5l1 -2l-3 -14q8 5 12 7q15 8 31 8q8 0 14 -3l57 245q8 36 37.5 63t65.5 33h3h15q-24 -4 -45.5 -17.5t-37 -34.5t-21.5 -44l-60 -261
q1 -11 0 -18.5t-6 -28.5l-3 -14q-2 -11 -3.5 -18t-2.5 -13t-2 -10.5t-2 -13.5l-3 -2h-5l-16 -68q3 2 6 3q4 1 11.5 2.5t13.5 2.5l5 1l69 1l-24 -79q-4 -17 -11 -26q-4 -6 -11 -11q-10 -4 -17 -5q-3 0 -8 -0.5t-13 -0.5h-47l-17 -74l13 1l-10 -34h-11l-23 -101
q-10 -40 12 -68.5t62 -28.5h381h1h3q55 9 87 59q11 18 15 37l178 766q6 27 -1.5 49.5t-27 35.5t-45.5 13zM318 434q-26 -16 -69 -16q-56 0 -71 26q-6 11 -6 26l5 35l2 11l29 126v2q0 1 0.5 3.5t1.5 2.5q1 -1 64 -1v-1q-3 -7 -11 -38.5t-15 -60.5l-7 -28l-6 -34l1 -5
q2 -25 29 -25q5 0 10 1t9.5 3t8.5 6q14 11 24 54l7 31q6 30 13.5 63t7.5 35q2 0 7 -0.5t17 -0.5h31q-1 0 -1 -1l-33 -132l-4 -12q-4 -17 -7.5 -26t-13 -22.5t-23.5 -21.5zM520 490l-4 -14q-6 -32 -10 -55l-2 -2q-23 1 -40 0l-89 -388q-10 -40 11.5 -68.5t61.5 -28.5h-20
q-40 0 -62 28.5t-12 68.5l112 486h-2h-2q-4 0 -14 -4q-1 -5 -11 -50q-4 -19 -8 -42l-2 -2q-14 1 -23.5 0.5t-25.5 -0.5l-1 1q5 23 11 47q10 44 14 80l2 1q19 3 27 4.5t25 4.5l2 -2l-4 -14q10 6 12 7l8 4l57 246q9 36 38.5 63t65.5 33h3h17h1q-36 -6 -65.5 -33t-38.5 -63
l-56 -242h1q21 0 27 -16q2 -4 2.5 -8t-0.5 -11.5t-2.5 -13t-3.5 -17.5zM600 498q0 -1 -2.5 -11.5t-3.5 -15.5q-7 -30 -7 -32q-1 -2 -1 -4t-0.5 -3.5t-1 -4.5t-0.5 -6l-1 -1l-1 -1h-27h-25l-1 1q2 9 6 19q1 3 1.5 5t1.5 5.5t2 9.5q5 20 7 34q1 2 1 4t0.5 4t1 4.5t0.5 4t0.5 4
t0.5 4.5h1l1 1q3 1 12.5 2t13.5 2q7 1 27 5v-1l1 -1q-1 -3 -2 -7t-1.5 -7t-1.5 -7t-2 -7zM603 538q-7 -5 -14.5 -7t-15.5 -1.5t-13 3.5q-3 2 -5 4.5t-2 5.5t1 6t3.5 6t6.5 6q9 6 21.5 7.5t20.5 -3.5t7 -13t-10 -14zM620 484q8 34 25 51q7 6 16 10.5t17.5 6.5t13.5 2.5
t11 0.5q15 0 27 -4t19 -13q13 -17 5 -52q-7 -29 -21 -45q-22 -25 -61 -25q-20 0 -31 6q-33 13 -21 62zM770 263h-49l-7 -25h49l-9 -30h-49l-12 -41q-1 -1 0.5 -2.5t5 -2t5.5 -0.5h5l25 4l-10 -34h-56q-5 0 -13 2q-5 1 -9 7q-3 4 -3 5v8l16 53h-27l9 31h28l7 25h-28l9 29h122
zM789 344l-9 -30h-68l-8 -7q-1 -2 -4 -2.5t-4 -1.5q-12 -6 -23 -6h-21l8 30h7l11 1q4 2 8 10l12 23h50l-9 -17h50zM1181 552q5 -2 9.5 -5.5t7.5 -8.5v1v4l2 2q30 4 53 8l1 -2q-3 -14 -6.5 -27.5t-6.5 -26.5q-9 -39 -15 -78l-2 -2q-17 1 -26.5 0.5t-25.5 -0.5l-1 1q0 2 1 4
l1 4q-6 -5 -12.5 -8t-12.5 -3q-14 -1 -27 5q-32 12 -21 62q8 33 26 50q10 9 21 14.5t19.5 6t14.5 -0.5zM917 419q0 2 4 18.5t9 38.5l12 44q5 22 8 38l4 15l15 69q1 6 2 9q10 -2 65 -1h16q15 0 23.5 -0.5t20 -2t18.5 -6t12 -11.5q3 -4 4.5 -8.5t2.5 -9t1 -9.5q0 -3 -0.5 -7
t-1 -7t-1.5 -7q-4 -18 -13.5 -33.5t-23.5 -25.5q-4 -3 -8.5 -5.5t-9 -4.5t-9 -3.5t-10 -2.5t-9.5 -2t-10 -1.5t-9.5 -1t-10.5 -0.5h-9h-9h-4l-4 -4l-8 -31l-2 -11l-4.5 -22.5t-3.5 -14.5h-57zM930 215q0 -3 -0.5 -4.5t-1.5 -3.5t-2 -3.5t-3 -2.5q-3 -3 -5.5 -4t-7 -2.5
t-10.5 -1.5l-24 -1v-21q1 -6 3 -7l3 -2l7 1l23 1l-10 -31h-26q-31 0 -35 4q-6 3 -5 12l1 83h42l-1 -17h10q5 0 7 1q2 2 3 5l4 13h32zM1075 132h-44l3 10h-90l9 30h9l47 157l10 32h45l-5 -16q1 1 3.5 2.5t8.5 4.5t12 4q10 3 71 4h48l1 -18q0 -1 0.5 -2t2.5 -1.5t5 -0.5h10
l-9 -30h-26q-11 -1 -18.5 2t-10 7t-2.5 10v18l-5 -16h-16l-46 -155h12l-9 -32h-13zM1275 270h-49l-7 -24h48l-8 -27h-52l-10 -11h22l5 -33q1 -6 2 -7q1 -2 11 -2h6l-10 -33h-16l-11 1q-3 0 -5 1l-4 2q-2 1 -3 2q-2 1 -3.5 2t-3 3.5t-2.5 5.5l-5 33l-24 -32q-13 -19 -35 -19
h-33l9 29h12l10 3q4 2 7 6l34 49h-45l7 27h53l7 24h-51l9 30h144zM1285 328q-5 -9 -13.5 -14t-20.5 -5h-30l9 29h6h4q1 0 2 1q2 0 4 3l11 17q6 10 11 18.5t11 19t12 20.5q-2 20 -7 57q0 5 -1.5 16.5t-2.5 17.5q0 3 -1 9q-2 13 -4 24v2v1v2l2 1q13 2 48 9l2 -2l4 -65v-1v-2
q2 6 4.5 10.5t4 7.5t3 5.5t3.5 5.5l3 7q2 4 4.5 9.5t6.5 13.5v0v1l2 1q16 2 23.5 3.5t25.5 5.5l2 -2z" />
    <glyph glyph-name="uniE618" unicode="&#xe618;" horiz-adv-x="1294" 
d="M826 251q40 72 70 151.5t40.5 119t10.5 43.5h-16h-137h-145v113h354v48h-354v169h-161v-169h-322v-48h322v-113h-274v-48h556q0 -4 -0.5 -6t-2 -4t-5.5 -6q0 -16 -5 -37t-11 -39t-17.5 -44t-19 -40.5t-20.5 -40.5q-59 23 -114.5 40.5t-98.5 28t-83.5 15.5t-69.5 7
t-57.5 -1t-45.5 -5.5t-36 -9.5t-26.5 -10.5t-19.5 -10.5l-12 -6q-56 -39 -87 -84.5t-35.5 -86t4 -80.5t29.5 -72t43 -56t41.5 -36.5t28.5 -11.5q70 -15 135.5 -17t121.5 9.5t105 31t92.5 49.5t79.5 63t70 74q8 -8 24 -8q39 -22 168 -84.5t238 -114.5l109 -51v242
q-10 0 -26.5 2.5t-39.5 8t-45 11.5t-55.5 16.5t-56.5 17.5t-62.5 20t-60.5 20l-63 21q-42 14 -58 19zM617 179q-41 -53 -88 -90.5t-88.5 -57t-85.5 -29t-77.5 -9.5t-66 5t-49 10t-28.5 10q-36 9 -59 42.5t-27.5 74t15.5 80.5t63 61q71 22 143.5 25t139.5 -14t116.5 -36
t107.5 -48q-2 -4 -4.5 -8.5t-4.5 -7t-4 -4.5t-2 -3l-1 -1v0z" />
    <glyph glyph-name="uniE619" unicode="&#xe619;" horiz-adv-x="1118" 
d="M426 251q-19 -10 -34 -11.5t-22.5 3t-12.5 11.5t-6.5 12t-1.5 6l-84 194q-21 62 5 55q10 -3 23 -13q52 -39 91 -63q17 -10 38 -12t33 2l13 3l547 251q-51 63 -121 109t-156.5 72t-179.5 26q-113 0 -216.5 -38.5t-178.5 -103.5t-119 -155t-44 -188q0 -114 56.5 -213
t155.5 -167l-24 -133q0 -2 -0.5 -4t-0.5 -8.5t2.5 -9t8.5 -4t18 4.5q32 15 136 83q99 -34 206 -34q114 0 217.5 38t178 103t119 155t44.5 189q0 114 -59 215q-575 -343 -632 -375v0z" />
    <glyph glyph-name="uniE61A" unicode="&#xe61a;" horiz-adv-x="1140" 
d="M996 707h-853q-35 0 -60 -25t-25 -61v-426q0 -36 25 -61t60 -25h853q36 0 61 25t25 61v426q0 18 -7 33.5t-18.5 27t-27 18.5t-33.5 7zM1039 225q0 -30 -23 -51.5t-55 -21.5h-783q-32 0 -55 21.5t-23 51.5v366q0 20 10.5 36.5t28.5 26.5t39 10h783q21 0 39 -10t28.5 -26.5
t10.5 -36.5v-366zM319 469q-4 0 -8 -1h-8q-4 -1 -7.5 -2t-7 -2.5t-7.5 -3.5q-16 -9 -28 -27v148h-39v-342h40v30q4 -6 8 -11t9 -8.5t11 -6.5q16 -8 38 -8q39 0 67.5 29t28.5 87t-28 88q-5 5 -10 9t-10.5 7.5t-11 6t-11.5 4t-12.5 2.5t-13.5 1zM356.5 292
q-14.5 -21 -45.5 -21q-12 0 -22 5.5t-19 15.5q-17 21 -17 59q0 19 4.5 34t13 26t18.5 16.5t22 5.5q30 0 45 -22q8 -11 11.5 -26t3.5 -34q0 -38 -14.5 -59zM606 271q-23 0 -30 11q-2 3 -3.5 6t-2.5 6.5t-1.5 7t-0.5 7.5v122h82v32h-82v78h-41v-78h-67v-32h68v-120
q0 -7 0.5 -13.5t2.5 -12.5t4.5 -11.5t6 -10t8.5 -8.5q3 -3 6.5 -5.5t7 -4.5t7.5 -3.5t8.5 -3t8.5 -2.5h10q4 -1 10 -1h8q4 0 7.5 0.5t7 0.5t6.5 0.5t6 1.5q13 3 23 7v40q-11 -6 -25 -10q-13 -4 -35 -4zM854 467q-30 0 -49 -12q-4 -2 -7 -4t-6 -5t-6 -5.5t-5.5 -5.5
t-5.5 -6.5t-5 -7.5v42h-40v-224h40v102q0 40 23 67t49 27q20 0 32 -14q3 -3 5 -7.5t3.5 -9t2.5 -10t1 -11.5v-144h40v158q0 30 -18 50q-9 10 -22.5 15t-31.5 5z" />
    <glyph glyph-name="uniE61B" unicode="&#xe61b;" horiz-adv-x="1349" 
d="M1069 858h-790q-21 0 -39.5 -10.5t-29 -28.5t-10.5 -40v-790q0 -33 23 -56t56 -23h790q33 0 56 23t23 56v790q0 33 -23 56t-56 23zM1089 38q0 -28 -20 -48.5t-49 -20.5h-692q-28 0 -48.5 20.5t-20.5 48.5v692q0 19 9.5 34.5t25.5 25t34 9.5h692q29 0 49 -20.5t20 -48.5
v-692zM398 664h553v-59h-553v59zM398 509h553v-59h-553v59zM398 354h553v-59h-553v59zM398 200h553v-60h-553v60z" />
  </font>
</defs>
</svg>
