<?xml version="1.0" encoding="utf-8"?>
<!-- Generator: Adobe Illustrator 17.0.0, SVG Export Plug-In . SVG Version: 6.00 Build 0)  -->
<!DOCTYPE svg PUBLIC "-//W3C//DTD SVG 1.1//EN" "http://www.w3.org/Graphics/SVG/1.1/DTD/svg11.dtd">
<svg version="1.1" id="logo" xmlns="http://www.w3.org/2000/svg" xmlns:xlink="http://www.w3.org/1999/xlink" x="0px" y="0px"
	 width="1161.987px" height="221.646px" viewBox="0 0 1161.987 221.646" enable-background="new 0 0 1161.987 221.646"
	 xml:space="preserve">
<g>
	<g>
		<polygon fill="#2264B0" points="237.929,46.583 237.925,46.586 237.929,46.589 237.929,133.12 162.996,176.383 237.929,219.646 
			312.868,176.38 312.868,89.849 		"/>
		<polygon fill="#679AE8" points="88.053,46.589 88.057,46.586 88.053,46.583 13.115,89.849 13.115,176.38 88.053,219.646 
			162.987,176.383 88.053,133.12 		"/>
		<polygon fill="#044690" points="237.925,46.586 162.991,3.323 88.057,46.586 162.991,89.849 		"/>
		<g>
			<polygon fill="#011B63" points="237.925,46.586 162.991,89.849 162.991,176.38 162.996,176.383 237.929,133.12 237.929,46.589 
							"/>
		</g>
		<g>
			<g>
				<polygon fill="#022A83" points="88.057,46.586 88.053,46.589 88.053,133.12 162.987,176.383 162.991,176.38 162.991,89.849 				
					"/>
			</g>
		</g>
	</g>
	<g>
		<g>
			<path fill="#FFFFFF" d="M432.955,108.317c15.839,3.96,30.293,16.632,30.293,37.817c0,16.038-7.523,25.344-13.067,30.491
				c-10.098,9.702-26.73,14.256-51.678,14.256c-13.464,0-23.562-0.989-30.096-1.781V40.007c8.514-1.782,21.978-3.168,35.441-3.168
				c46.134,0,54.054,22.571,54.054,37.817c0,14.454-9.108,27.126-24.948,33.065V108.317z M405.236,101.189
				c18.216,0,29.7-10.099,29.7-24.156c0-18.216-14.652-22.77-28.908-22.77c-7.524,0-12.078,0.594-14.85,1.188v45.738H405.236z
				 M391.178,172.468c3.366,0.594,7.92,0.792,13.86,0.792c18.414,0,34.253-7.723,34.253-27.72c0-19.998-17.226-27.324-34.848-27.324
				h-13.266V172.468z"/>
			<path fill="#FFFFFF" d="M566.207,185.14c-7.722,3.563-19.8,6.533-34.649,6.533c-32.868,0-51.876-21.978-51.876-55.241
				c0-32.472,18.217-58.409,49.104-58.409c30.69,0,42.966,25.542,42.966,52.47c0,3.762-0.198,6.93-0.594,9.701h-69.3
				c0.595,24.552,15.84,33.858,33.066,33.858c12.078,0,20.394-2.179,27.521-5.148L566.207,185.14z M549.972,123.76
				c0.198-13.067-5.148-29.304-22.771-29.304c-16.829,0-23.957,16.632-25.146,29.304H549.972z"/>
			<path fill="#FFFFFF" d="M673.722,185.14c-7.722,3.563-19.8,6.533-34.649,6.533c-32.868,0-51.876-21.978-51.876-55.241
				c0-32.472,18.216-58.409,49.104-58.409c30.689,0,42.966,25.542,42.966,52.47c0,3.762-0.198,6.93-0.594,9.701h-69.3
				c0.594,24.552,15.84,33.858,33.065,33.858c12.078,0,20.395-2.179,27.521-5.148L673.722,185.14z M657.485,123.76
				c0.198-13.067-5.147-29.304-22.77-29.304c-16.83,0-23.958,16.632-25.146,29.304H657.485z"/>
		</g>
		<g>
			<path fill="#2979F8" d="M799.914,184.942c-6.93,3.365-20.394,6.731-37.62,6.731c-38.808,0-70.091-25.146-70.091-76.229
				c0-48.708,30.294-79.001,74.447-79.001c18.018,0,28.512,3.762,33.264,6.138l-4.356,13.86c-6.93-3.366-16.632-6.138-28.512-6.138
				c-34.253,0-57.617,22.968-57.617,64.547c0,39.6,21.384,62.964,56.628,62.964c11.483,0,22.77-2.574,30.293-6.138L799.914,184.942z
				"/>
			<path fill="#2979F8" d="M828.225,189.496h-16.434V31.097h16.434V189.496z"/>
			<path fill="#2979F8" d="M941.082,134.65c0,40.194-26.531,57.222-50.489,57.222c-27.72,0-49.104-20.79-49.104-55.638
				c0-36.827,22.968-57.221,50.489-57.221C921.48,79.013,941.082,101.584,941.082,134.65z M891.385,91.882
				c-23.364,0-33.065,22.968-33.065,43.758c0,23.958,13.266,43.361,32.67,43.361c19.602,0,33.264-19.403,33.264-43.757
				C924.253,116.039,914.946,91.882,891.385,91.882z"/>
			<path fill="#2979F8" d="M1039.091,160.786c0,11.088,0.594,20.395,0.99,28.71h-14.851l-0.792-17.028h-0.594
				c-4.95,8.515-16.038,19.404-34.451,19.404c-16.236,0-35.442-9.306-35.442-46.529V81.586h16.435v60.785
				c0,20.988,6.138,35.641,24.155,35.641c12.87,0,28.116-10.297,28.116-29.305V81.586h16.434V160.786z"/>
			<path fill="#2979F8" d="M1147.196,162.766c0,8.712,0.396,19.403,0.791,26.729h-14.651l-0.792-18.414h-0.594
				c-5.544,11.286-17.82,20.79-35.244,20.79c-24.947,0-44.352-21.582-44.352-54.846c0-36.432,21.384-57.815,46.529-57.815
				c15.84,0,26.532,7.722,31.482,16.632h0.396V31.097h16.435V162.766z M1130.762,124.75c0-21.582-15.245-32.274-29.105-32.274
				c-20.394,0-32.472,19.008-32.472,43.757c0,22.771,10.691,42.174,31.878,42.174c17.819,0,29.699-15.642,29.699-32.868V124.75z"/>
		</g>
	</g>
</g>
</svg>
